<svg width="213" height="54" viewBox="0 0 213 54" fill="none" xmlns="http://www.w3.org/2000/svg">
<path d="M68.5968 8.96303C70.839 8.96303 72.7587 9.311 74.3559 10.0069C75.9531 10.6697 77.2585 11.6639 78.2721 12.9895C79.2857 14.2819 80.0228 15.8726 80.4836 17.7616C80.9443 19.6174 81.1746 21.7384 81.1746 24.1244C81.1746 25.45 81.0825 26.8916 80.8982 28.4491C80.7446 30.0067 80.4375 31.5808 79.9767 33.1715C79.5467 34.7291 78.9478 36.2369 78.1799 37.6951C77.412 39.1532 76.4138 40.4457 75.1852 41.5724C73.9873 42.6992 72.5437 43.6105 70.8544 44.3064C69.165 44.9692 67.1685 45.3006 64.8649 45.3006C62.3156 45.3006 60.1962 44.8864 58.5069 44.0579C56.8483 43.2294 55.5122 42.1192 54.4986 40.7274C53.5157 39.3024 52.8092 37.6288 52.3792 35.7067C51.9799 33.7846 51.7803 31.7299 51.7803 29.5427C51.7803 26.9578 52.0567 24.4392 52.6096 21.9869C53.1625 19.5014 54.0839 17.2976 55.3739 15.3755C56.6947 13.4535 58.4301 11.9125 60.5802 10.7526C62.7302 9.55955 65.4024 8.96303 68.5968 8.96303ZM67.6293 16.668C66.5542 16.668 65.6174 16.8834 64.8188 17.3142C64.051 17.7119 63.3906 18.2587 62.8377 18.9546C62.3156 19.6506 61.8855 20.4293 61.5477 21.291C61.2405 22.1526 60.9948 23.0474 60.8105 23.9753C60.6262 24.87 60.5034 25.7482 60.4419 26.6099C60.3805 27.4384 60.3498 28.184 60.3498 28.8468C60.3498 31.8625 60.8105 34.0663 61.732 35.4582C62.6841 36.85 64.0202 37.546 65.7403 37.546C67.1532 37.546 68.305 37.0654 69.1957 36.1044C70.0865 35.1102 70.7776 33.9337 71.269 32.575C71.7912 31.1831 72.1444 29.7581 72.3287 28.3C72.513 26.8087 72.6051 25.5494 72.6051 24.5221C72.6051 22.1029 72.2212 20.1974 71.4533 18.8055C70.6854 17.3805 69.4107 16.668 67.6293 16.668Z" fill="white"/>
<path d="M101.444 16.9663C104.331 16.9663 106.496 17.9273 107.94 19.8494C109.414 21.7715 110.151 24.8038 110.151 28.9462C110.151 31.5311 109.875 33.8343 109.322 35.8558C108.769 37.8773 108.001 39.6006 107.019 41.0256C106.036 42.4175 104.884 43.4779 103.563 44.207C102.242 44.9361 100.814 45.3006 99.2783 45.3006C97.6504 45.3006 96.3757 44.9195 95.4543 44.1573C94.5328 43.3951 93.811 42.3181 93.2889 40.9262C93.1967 42.1192 93.1199 43.0306 93.0585 43.6602C92.9971 44.2899 92.951 44.787 92.9203 45.1515C92.8896 45.5492 92.8589 45.8971 92.8281 46.1954C92.8281 46.4936 92.7974 46.8913 92.736 47.3884C92.7053 47.8855 92.6592 48.5649 92.5978 49.4265C92.5364 50.2881 92.4442 51.4812 92.3213 53.0056C92.2906 53.4033 92.2138 53.6684 92.091 53.8009C91.9681 53.9335 91.707 53.9998 91.3077 53.9998H89.6491C88.697 53.9998 87.9137 53.8838 87.2994 53.6518C86.7158 53.453 86.2398 53.1547 85.8712 52.757C85.5333 52.3594 85.2876 51.8623 85.134 51.2658C85.0111 50.7024 84.9497 50.0396 84.9497 49.2774C84.9497 48.946 84.9958 48.0512 85.0879 46.5931C85.1801 45.1349 85.2876 43.3951 85.4104 41.3736C85.564 39.3189 85.7176 37.1151 85.8712 34.7622C86.0555 32.4093 86.2244 30.1724 86.378 28.0515C86.5315 25.8974 86.6544 23.9918 86.7466 22.3349C86.8694 20.6779 86.9616 19.5346 87.023 18.9049C87.0537 18.1758 87.1305 17.745 87.2534 17.6125C87.3455 17.5131 87.5912 17.4633 87.9905 17.4633H89.7874C91.446 17.4633 92.6439 17.8445 93.381 18.6067C94.1489 19.3357 94.5328 20.2139 94.5328 21.2413C95.2393 19.7168 96.1454 18.6232 97.2511 17.9604C98.3876 17.2976 99.7851 16.9663 101.444 16.9663ZM98.0804 23.5776C96.514 23.5776 95.3621 24.3067 94.625 25.7648C93.8878 27.223 93.5192 29.2113 93.5192 31.7299C93.5192 32.5916 93.5653 33.4366 93.6575 34.2651C93.7803 35.0936 93.98 35.8393 94.2564 36.5021C94.5328 37.1648 94.9014 37.6951 95.3621 38.0928C95.8536 38.4904 96.4679 38.6893 97.205 38.6893C98.5258 38.6893 99.6315 37.9933 100.522 36.6015C101.413 35.2096 101.858 33.0224 101.858 30.0398C101.858 29.2113 101.797 28.416 101.674 27.6538C101.582 26.8584 101.398 26.1625 101.121 25.566C100.845 24.9695 100.461 24.4889 99.9694 24.1244C99.478 23.7599 98.8483 23.5776 98.0804 23.5776Z" fill="white"/>
<path d="M124.54 24.1741C124.448 25.4334 124.341 26.6762 124.218 27.9023C124.126 29.1285 124.033 30.2884 123.941 31.382C123.849 32.4756 123.772 33.4532 123.711 34.3148C123.68 35.1765 123.665 35.8393 123.665 36.3032C123.665 37.1648 123.757 37.7448 123.941 38.043C124.126 38.3082 124.433 38.4407 124.863 38.4407C125.201 38.4407 125.492 38.3744 125.738 38.2419C125.984 38.1093 126.214 37.9602 126.429 37.7945C126.644 37.6288 126.828 37.4797 126.982 37.3471C127.166 37.2146 127.366 37.1483 127.581 37.1483C127.796 37.1483 127.996 37.2808 128.18 37.546C128.364 37.8111 128.456 38.4242 128.456 39.3852C128.456 41.2079 127.996 42.6495 127.074 43.7099C126.153 44.7704 124.571 45.3006 122.329 45.3006C120.117 45.3006 118.474 44.7538 117.399 43.6602C116.355 42.5335 115.832 40.8268 115.832 38.5401C115.832 38.043 115.848 37.4631 115.879 36.8003C115.94 36.1044 116.017 35.2096 116.109 34.116C116.201 33.0224 116.309 31.6802 116.431 30.0895C116.585 28.4988 116.739 26.527 116.892 24.1741H114.45C114.205 24.1741 114.051 24.1244 113.99 24.025C113.959 23.8924 113.943 23.7102 113.943 23.4782L114.082 20.943C114.112 20.5122 114.158 20.0979 114.22 19.7003C114.312 19.2695 114.466 18.8883 114.681 18.557C114.926 18.2256 115.264 17.9604 115.694 17.7616C116.124 17.5628 116.692 17.4633 117.399 17.4633C117.614 16.8668 117.86 16.1543 118.136 15.3258C118.413 14.4973 118.689 13.702 118.965 12.9398C119.242 12.1444 119.503 11.4816 119.749 10.9514C120.025 10.4212 120.271 10.1561 120.486 10.1561H121.822C123.112 10.1561 124.003 10.5869 124.494 11.4485C124.986 12.3101 125.231 13.3375 125.231 14.5305C125.231 15.1933 125.185 16.1709 125.093 17.4633H129.931C130.422 17.4633 130.668 17.6953 130.668 18.1593L130.484 20.8436C130.422 21.8378 130.161 22.6497 129.7 23.2793C129.27 23.8759 128.364 24.1741 126.982 24.1741H124.54Z" fill="white"/>
<path d="M138.704 44.8035C137.751 44.8035 136.968 44.7041 136.354 44.5053C135.77 44.2733 135.294 43.9585 134.926 43.5608C134.588 43.1631 134.342 42.6826 134.188 42.1192C134.066 41.5227 134.004 40.8433 134.004 40.0811C134.004 39.584 134.02 38.8881 134.05 37.9933C134.112 37.0654 134.204 35.8061 134.327 34.2154C134.45 32.5916 134.588 30.5535 134.741 28.1012C134.926 25.6157 135.141 22.5503 135.386 18.9049C135.417 18.1758 135.494 17.745 135.617 17.6125C135.709 17.5131 135.955 17.4633 136.354 17.4633H138.151C139.103 17.4633 139.871 17.5628 140.454 17.7616C141.069 17.9604 141.545 18.2587 141.883 18.6564C142.251 19.054 142.497 19.5346 142.62 20.0979C142.773 20.6613 142.85 21.291 142.85 21.9869C142.85 22.484 142.819 23.2296 142.758 24.2238C142.697 25.218 142.604 26.5767 142.482 28.3C142.389 29.9901 142.251 32.1111 142.067 34.6628C141.883 37.1814 141.652 40.2303 141.376 43.8093C141.345 44.207 141.268 44.4721 141.145 44.6047C141.023 44.7372 140.761 44.8035 140.362 44.8035H138.704Z" fill="white"/>
<path d="M158.388 45.3006C156.023 45.3006 154.149 44.9361 152.767 44.207C151.385 43.4448 150.341 42.5003 149.634 41.3736C148.928 40.2468 148.482 39.0372 148.298 37.7448C148.114 36.4192 148.022 35.2096 148.022 34.116C148.022 33.6852 148.052 32.8401 148.114 31.5808C148.206 30.3215 148.314 28.8634 148.436 27.2064C148.559 25.5494 148.682 23.793 148.805 21.9372C148.928 20.0482 149.051 18.2753 149.174 16.6183C149.296 14.9282 149.389 13.4369 149.45 12.1444C149.542 10.852 149.588 9.95722 149.588 9.46013C149.588 8.73105 149.634 8.31681 149.726 8.21739C149.819 8.08483 150.095 8.01855 150.556 8.01855H152.353C153.274 8.01855 154.042 8.13454 154.656 8.36652C155.271 8.5985 155.762 8.91332 156.131 9.311C156.499 9.70867 156.76 10.1726 156.914 10.7029C157.067 11.2 157.144 11.7468 157.144 12.3433C157.144 12.9066 157.083 14.0003 156.96 15.6241C156.868 17.2479 156.745 19.1535 156.591 21.3407C157.39 19.8494 158.296 18.7558 159.31 18.0599C160.323 17.3308 161.659 16.9663 163.318 16.9663C166.113 16.9663 168.248 17.9604 169.722 19.9488C171.227 21.9372 171.98 24.9032 171.98 28.8468C171.98 29.8741 171.903 31.0009 171.749 32.227C171.626 33.4532 171.381 34.6794 171.012 35.9055C170.674 37.0986 170.183 38.275 169.538 39.4349C168.923 40.5617 168.109 41.5558 167.096 42.4175C166.082 43.2791 164.854 43.975 163.41 44.5053C161.997 45.0355 160.323 45.3006 158.388 45.3006ZM160.461 23.5776C159.356 23.5776 158.48 23.8924 157.835 24.5221C157.221 25.1517 156.745 25.9139 156.407 26.8087C156.069 27.7035 155.854 28.6645 155.762 29.6919C155.67 30.6861 155.624 31.5642 155.624 32.3265C155.624 34.6131 155.916 36.2535 156.499 37.2477C157.083 38.2087 157.958 38.6893 159.125 38.6893C160.231 38.6893 161.091 38.3247 161.705 37.5957C162.35 36.8334 162.826 35.9387 163.134 34.9114C163.471 33.884 163.686 32.8401 163.779 31.7797C163.871 30.7192 163.917 29.8907 163.917 29.2942C163.917 27.4384 163.656 26.0299 163.134 25.0689C162.611 24.0747 161.721 23.5776 160.461 23.5776Z" fill="white"/>
<path d="M181.729 45.2509C179.825 45.2509 178.458 44.7041 177.628 43.6105C176.799 42.5169 176.385 40.7108 176.385 38.1922C176.385 37.7945 176.4 37.2974 176.431 36.7009C176.492 36.1044 176.553 35.3422 176.615 34.4143C176.707 33.4532 176.815 32.2768 176.937 30.8849C177.06 29.493 177.183 27.8029 177.306 25.8145C177.46 23.8261 177.613 21.4898 177.767 18.8055C177.951 16.1212 178.135 13.0061 178.32 9.46013C178.35 8.73105 178.427 8.30024 178.55 8.16768C178.642 8.06826 178.888 8.01855 179.287 8.01855H181.084C182.005 8.01855 182.773 8.13454 183.388 8.36652C184.002 8.5985 184.493 8.91332 184.862 9.311C185.23 9.70867 185.492 10.1726 185.645 10.7029C185.799 11.2 185.876 11.7302 185.876 12.2936C185.876 12.9564 185.829 13.9174 185.737 15.1767C185.676 16.4029 185.584 17.7947 185.461 19.3523C185.338 20.9099 185.215 22.5337 185.092 24.2238C184.969 25.9139 184.847 27.5378 184.724 29.0953C184.601 30.6198 184.493 31.9951 184.401 33.2212C184.34 34.4474 184.309 35.3753 184.309 36.005C184.309 36.8666 184.447 37.4797 184.724 37.8442C185.031 38.2087 185.353 38.4739 185.691 38.6396C186.029 38.7721 186.336 38.8715 186.613 38.9378C186.92 38.971 187.073 39.0704 187.073 39.2361C187.073 39.9651 186.997 40.6942 186.843 41.4233C186.689 42.1192 186.413 42.7654 186.014 43.362C185.614 43.9253 185.062 44.3893 184.355 44.7538C183.679 45.0852 182.804 45.2509 181.729 45.2509Z" fill="white"/>
<path d="M201.852 45.3006C200.5 45.3006 199.149 45.1184 197.797 44.7538C196.476 44.3893 195.279 43.7596 194.204 42.8649C193.159 41.9701 192.299 40.7771 191.623 39.2858C190.948 37.7945 190.61 35.9221 190.61 33.6686C190.61 32.8401 190.671 31.8459 190.794 30.6861C190.917 29.5262 191.147 28.3331 191.485 27.107C191.854 25.8808 192.345 24.6712 192.96 23.4782C193.605 22.252 194.434 21.1584 195.447 20.1974C196.461 19.2363 197.69 18.4575 199.133 17.861C200.577 17.2645 202.297 16.9663 204.293 16.9663C205.891 16.9663 207.242 17.1651 208.348 17.5628C209.454 17.9604 210.344 18.5072 211.02 19.2032C211.696 19.866 212.187 20.6447 212.494 21.5395C212.802 22.4343 212.955 23.3953 212.955 24.4227C212.955 25.9471 212.663 27.2395 212.08 28.3C211.527 29.3605 210.79 30.2552 209.868 30.9843C208.977 31.6802 207.979 32.227 206.873 32.6247C205.768 33.0224 204.677 33.3372 203.602 33.5692C202.527 33.768 201.529 33.9006 200.608 33.9669C199.717 34 199.026 34.0166 198.534 34.0166C198.534 34.6462 198.611 35.2759 198.765 35.9055C198.949 36.5021 199.21 37.0323 199.548 37.4962C199.886 37.9602 200.331 38.3413 200.884 38.6396C201.437 38.9378 202.113 39.0869 202.911 39.0869C203.71 39.0869 204.324 38.9544 204.754 38.6893C205.215 38.391 205.583 38.0762 205.86 37.7448C206.136 37.3803 206.367 37.0654 206.551 36.8003C206.766 36.5021 207.042 36.3529 207.38 36.3529C207.534 36.3529 207.795 36.4026 208.164 36.5021C208.563 36.5683 208.962 36.734 209.361 36.9991C209.761 37.2643 210.114 37.6288 210.421 38.0928C210.728 38.5567 210.882 39.1532 210.882 39.8823C210.882 40.8433 210.605 41.6718 210.053 42.3678C209.5 43.0637 208.778 43.6271 207.887 44.0579C207.027 44.4887 206.06 44.8035 204.985 45.0024C203.909 45.2012 202.865 45.3006 201.852 45.3006ZM202.727 23.5776C202.051 23.5776 201.468 23.793 200.976 24.2238C200.515 24.6215 200.116 25.1352 199.778 25.7648C199.471 26.3945 199.225 27.0904 199.041 27.8526C198.888 28.6148 198.765 29.3439 198.673 30.0398C200.577 30.0067 202.113 29.6587 203.28 28.9959C204.478 28.3331 205.077 27.3887 205.077 26.1625C205.077 25.4997 204.877 24.9032 204.478 24.373C204.109 23.8427 203.526 23.5776 202.727 23.5776Z" fill="white"/>
<path d="M22.1041 0.916033L23.7065 1.97111C24.5679 2.53829 24.53 3.81408 23.6364 4.3291C23.241 4.55698 22.7588 4.57559 22.347 4.37886L21.8925 4.1617C21.1592 3.81135 20.2967 3.86595 19.6135 4.30599L5.7862 13.2113C4.64292 13.9476 3.95203 15.2143 3.95203 16.5742V24.0672C3.95203 25.4024 4.61821 26.6495 5.72796 27.3919L15.5959 33.9931C16.5379 34.6233 16.4962 36.0217 15.5184 36.5947C15.0148 36.8898 14.3873 36.8739 13.8992 36.5536L2.67717 29.1878C1.5506 28.4483 0.87207 27.1913 0.87207 25.8438V14.8632C0.87207 13.4979 1.56841 12.2269 2.71902 11.4921L19.3087 0.896582C20.1628 0.351111 21.2577 0.35873 22.1041 0.916033Z" fill="white"/>
<path d="M19.3224 48.9932L17.6745 47.9329C16.7944 47.3666 16.8269 46.0689 17.7344 45.5461C18.1291 45.3187 18.6098 45.2978 19.0225 45.49L19.4988 45.7119C20.2481 46.061 21.1242 46.0013 21.8198 45.5538L35.8695 36.5153C37.0201 35.7751 37.7131 34.4986 37.707 33.131L37.6734 25.598C37.6674 24.255 36.9878 23.0051 35.864 22.2704L25.7903 15.6843C24.8269 15.0544 24.8627 13.6308 25.8566 13.0488C26.3601 12.7539 26.9863 12.7665 27.4771 13.0813L38.9623 20.4481C40.1028 21.1797 40.7948 22.4393 40.8009 23.7947L40.8502 34.8357C40.8563 36.2087 40.1578 37.4894 38.9999 38.2282L22.1192 48.9981C21.2655 49.5427 20.1733 49.5408 19.3224 48.9932Z" fill="white"/>
<path d="M8.20801 19.7325V25.4563C8.20801 25.9788 8.49076 26.4604 8.94703 26.7151C9.90788 27.2513 11.091 26.5567 11.091 25.4563V21.5877C11.091 20.3159 11.7419 19.1326 12.8161 18.4518L26.4421 9.81482C27.7606 8.9791 29.4448 8.98674 30.7556 9.83439L37.6865 14.3163L38.4904 14.8586C38.7066 15.0043 38.9613 15.0822 39.222 15.0822C39.9054 15.0822 40.4737 14.5563 40.5264 13.8749L40.56 13.4403C40.6103 12.7903 40.301 12.1648 39.754 11.8101L30.7586 5.97851C29.4464 5.1278 27.7587 5.11983 26.4385 5.95813L10.0638 16.3557C8.90814 17.0895 8.20801 18.3635 8.20801 19.7325Z" fill="white"/>
<path d="M33.6914 30.2479L33.6914 24.9238C33.6914 24.3845 33.3938 23.8892 32.9176 23.6359C31.9461 23.1192 30.7741 23.8234 30.7741 24.9238L30.7741 28.521C30.7741 29.7887 30.1109 30.9641 29.0258 31.6195L15.1404 40.0067C13.8577 40.7815 12.2496 40.7743 10.9738 39.9882L4.20944 35.8198C3.98555 35.6819 3.81992 35.4667 3.74381 35.215C3.62125 34.8096 3.27238 34.5138 2.85244 34.4592L2.57524 34.4231C1.67225 34.3055 0.871709 35.0086 0.871709 35.9193L0.871709 36.3937C0.871709 37.0611 1.21736 37.681 1.78519 38.0318L10.9708 43.7065C12.248 44.4956 13.8595 44.503 15.1439 43.7258L31.7622 33.6702C32.9597 32.9455 33.6914 31.6476 33.6914 30.2479Z" fill="white"/>
<ellipse cx="2.25531" cy="2.43333" rx="2.25531" ry="2.43333" transform="matrix(-1 0 0 1 41.5596 11.0845)" fill="#2EDAFF"/>
<ellipse cx="2.25531" cy="2.43333" rx="2.25531" ry="2.43333" transform="matrix(-1 0 0 1 4.5105 33.332)" fill="#2EDAFF"/>
<ellipse cx="139.506" cy="7.95601" rx="4.51061" ry="4.86666" fill="#2EDAFF"/>
</svg>
