<svg width="213" height="54" viewBox="0 0 213 54" fill="none" xmlns="http://www.w3.org/2000/svg">
<path d="M68.5968 8.96316C70.839 8.96316 72.7587 9.31112 74.3559 10.0071C75.9531 10.6698 77.2585 11.664 78.2721 12.9896C79.2857 14.2821 80.0228 15.8728 80.4836 17.7617C80.9443 19.6175 81.1746 21.7385 81.1746 24.1245C81.1746 25.4501 81.0825 26.8917 80.8982 28.4492C80.7446 30.0068 80.4375 31.5809 79.9767 33.1716C79.5467 34.7292 78.9478 36.2371 78.1799 37.6952C77.412 39.1533 76.4138 40.4458 75.1852 41.5725C73.9873 42.6993 72.5437 43.6106 70.8544 44.3066C69.165 44.9693 67.1685 45.3007 64.8649 45.3007C62.3156 45.3007 60.1962 44.8865 58.5069 44.058C56.8483 43.2295 55.5122 42.1193 54.4986 40.7275C53.5157 39.3025 52.8092 37.6289 52.3792 35.7068C51.9799 33.7847 51.7803 31.7301 51.7803 29.5429C51.7803 26.958 52.0567 24.4394 52.6096 21.987C53.1625 19.5016 54.0839 17.2978 55.3739 15.3757C56.6947 13.4536 58.4301 11.9126 60.5802 10.7527C62.7302 9.55967 65.4024 8.96316 68.5968 8.96316ZM67.6293 16.6681C66.5542 16.6681 65.6174 16.8835 64.8188 17.3143C64.051 17.712 63.3906 18.2588 62.8377 18.9547C62.3156 19.6507 61.8855 20.4295 61.5477 21.2911C61.2405 22.1527 60.9948 23.0475 60.8105 23.9754C60.6262 24.8702 60.5034 25.7484 60.4419 26.61C60.3805 27.4385 60.3498 28.1841 60.3498 28.8469C60.3498 31.8626 60.8105 34.0664 61.732 35.4583C62.6841 36.8501 64.0202 37.5461 65.7403 37.5461C67.1532 37.5461 68.305 37.0655 69.1957 36.1045C70.0865 35.1103 70.7776 33.9339 71.269 32.5751C71.7912 31.1833 72.1444 29.7583 72.3287 28.3001C72.513 26.8088 72.6051 25.5495 72.6051 24.5222C72.6051 22.103 72.2212 20.1975 71.4533 18.8056C70.6854 17.3806 69.4107 16.6681 67.6293 16.6681Z" fill="#0057FF"/>
<path d="M101.444 16.9664C104.331 16.9664 106.496 17.9274 107.94 19.8495C109.414 21.7716 110.151 24.8039 110.151 28.9463C110.151 31.5312 109.875 33.8344 109.322 35.856C108.769 37.8775 108.001 39.6007 107.019 41.0257C106.036 42.4176 104.884 43.4781 103.563 44.2071C102.242 44.9362 100.814 45.3007 99.2783 45.3007C97.6504 45.3007 96.3757 44.9196 95.4543 44.1574C94.5328 43.3952 93.811 42.3182 93.2889 40.9263C93.1967 42.1193 93.1199 43.0307 93.0585 43.6603C92.9971 44.29 92.951 44.7871 92.9203 45.1516C92.8896 45.5493 92.8589 45.8973 92.8281 46.1955C92.8281 46.4938 92.7974 46.8914 92.736 47.3885C92.7053 47.8856 92.6592 48.565 92.5978 49.4266C92.5364 50.2883 92.4442 51.4813 92.3214 53.0057C92.2906 53.4034 92.2138 53.6685 92.091 53.8011C91.9681 53.9336 91.707 53.9999 91.3077 53.9999H89.6491C88.697 53.9999 87.9137 53.8839 87.2994 53.6519C86.7158 53.4531 86.2398 53.1548 85.8712 52.7572C85.5333 52.3595 85.2876 51.8624 85.134 51.2659C85.0112 50.7025 84.9497 50.0397 84.9497 49.2775C84.9497 48.9461 84.9958 48.0513 85.0879 46.5932C85.1801 45.135 85.2876 43.3952 85.4104 41.3737C85.564 39.319 85.7176 37.1153 85.8712 34.7623C86.0555 32.4094 86.2244 30.1725 86.378 28.0516C86.5315 25.8975 86.6544 23.992 86.7466 22.335C86.8694 20.678 86.9616 19.5347 87.023 18.905C87.0537 18.176 87.1305 17.7452 87.2534 17.6126C87.3455 17.5132 87.5912 17.4635 87.9905 17.4635H89.7873C91.446 17.4635 92.6439 17.8446 93.381 18.6068C94.1489 19.3359 94.5328 20.2141 94.5328 21.2414C95.2393 19.717 96.1454 18.6234 97.2511 17.9606C98.3876 17.2978 99.7851 16.9664 101.444 16.9664ZM98.0804 23.5777C96.514 23.5777 95.3621 24.3068 94.625 25.7649C93.8878 27.2231 93.5192 29.2115 93.5192 31.7301C93.5192 32.5917 93.5653 33.4368 93.6575 34.2653C93.7803 35.0937 93.98 35.8394 94.2564 36.5022C94.5328 37.165 94.9014 37.6952 95.3621 38.0929C95.8536 38.4906 96.4679 38.6894 97.205 38.6894C98.5258 38.6894 99.6315 37.9935 100.522 36.6016C101.413 35.2097 101.858 33.0225 101.858 30.04C101.858 29.2115 101.797 28.4161 101.674 27.6539C101.582 26.8585 101.398 26.1626 101.121 25.5661C100.845 24.9696 100.461 24.4891 99.9694 24.1245C99.478 23.76 98.8483 23.5777 98.0804 23.5777Z" fill="#0057FF"/>
<path d="M124.54 24.1742C124.448 25.4335 124.341 26.6763 124.218 27.9024C124.126 29.1286 124.033 30.2885 123.941 31.3821C123.849 32.4757 123.772 33.4533 123.711 34.315C123.68 35.1766 123.665 35.8394 123.665 36.3033C123.665 37.165 123.757 37.7449 123.941 38.0432C124.126 38.3083 124.433 38.4408 124.863 38.4408C125.201 38.4408 125.492 38.3746 125.738 38.242C125.984 38.1094 126.214 37.9603 126.429 37.7946C126.644 37.6289 126.828 37.4798 126.982 37.3472C127.166 37.2147 127.366 37.1484 127.581 37.1484C127.796 37.1484 127.996 37.281 128.18 37.5461C128.364 37.8112 128.456 38.4243 128.456 39.3853C128.456 41.208 127.996 42.6496 127.074 43.71C126.153 44.7705 124.571 45.3007 122.329 45.3007C120.117 45.3007 118.474 44.7539 117.399 43.6603C116.355 42.5336 115.832 40.8269 115.832 38.5403C115.832 38.0432 115.848 37.4632 115.879 36.8004C115.94 36.1045 116.017 35.2097 116.109 34.1161C116.201 33.0225 116.309 31.6804 116.431 30.0897C116.585 28.499 116.739 26.5272 116.892 24.1742H114.45C114.205 24.1742 114.051 24.1245 113.99 24.0251C113.959 23.8926 113.943 23.7103 113.943 23.4783L114.082 20.9431C114.112 20.5123 114.158 20.0981 114.22 19.7004C114.312 19.2696 114.466 18.8885 114.681 18.5571C114.926 18.2257 115.264 17.9606 115.694 17.7617C116.124 17.5629 116.692 17.4635 117.399 17.4635C117.614 16.867 117.86 16.1545 118.136 15.326C118.413 14.4975 118.689 13.7021 118.965 12.9399C119.242 12.1446 119.503 11.4818 119.749 10.9515C120.025 10.4213 120.271 10.1562 120.486 10.1562H121.822C123.112 10.1562 124.003 10.587 124.494 11.4486C124.986 12.3103 125.231 13.3376 125.231 14.5306C125.231 15.1934 125.185 16.171 125.093 17.4635H129.931C130.422 17.4635 130.668 17.6954 130.668 18.1594L130.484 20.8437C130.422 21.8379 130.161 22.6498 129.7 23.2795C129.27 23.876 128.364 24.1742 126.982 24.1742H124.54Z" fill="#0057FF"/>
<path d="M138.704 44.8036C137.751 44.8036 136.968 44.7042 136.354 44.5054C135.77 44.2734 135.294 43.9586 134.926 43.5609C134.588 43.1632 134.342 42.6827 134.188 42.1193C134.066 41.5228 134.004 40.8435 134.004 40.0813C134.004 39.5842 134.02 38.8882 134.05 37.9935C134.112 37.0655 134.204 35.8062 134.327 34.2155C134.45 32.5917 134.588 30.5536 134.741 28.1013C134.926 25.6158 135.141 22.5504 135.386 18.905C135.417 18.176 135.494 17.7452 135.617 17.6126C135.709 17.5132 135.955 17.4635 136.354 17.4635H138.151C139.103 17.4635 139.871 17.5629 140.454 17.7617C141.069 17.9606 141.545 18.2588 141.883 18.6565C142.251 19.0542 142.497 19.5347 142.62 20.0981C142.773 20.6614 142.85 21.2911 142.85 21.987C142.85 22.4841 142.819 23.2298 142.758 24.2239C142.697 25.2181 142.604 26.5769 142.482 28.3001C142.389 29.9902 142.251 32.1112 142.067 34.6629C141.883 37.1815 141.652 40.2304 141.376 43.8095C141.345 44.2071 141.268 44.4723 141.145 44.6048C141.023 44.7374 140.761 44.8036 140.362 44.8036H138.704Z" fill="#0057FF"/>
<path d="M158.388 45.3007C156.023 45.3007 154.149 44.9362 152.767 44.2071C151.385 43.4449 150.341 42.5004 149.634 41.3737C148.928 40.247 148.482 39.0374 148.298 37.7449C148.114 36.4193 148.022 35.2097 148.022 34.1161C148.022 33.6853 148.052 32.8402 148.114 31.5809C148.206 30.3216 148.314 28.8635 148.436 27.2065C148.559 25.5495 148.682 23.7931 148.805 21.9373C148.928 20.0484 149.051 18.2754 149.174 16.6184C149.296 14.9283 149.389 13.437 149.45 12.1446C149.542 10.8521 149.588 9.95734 149.588 9.46025C149.588 8.73118 149.634 8.31693 149.726 8.21751C149.819 8.08496 150.095 8.01868 150.556 8.01868H152.353C153.274 8.01868 154.042 8.13466 154.656 8.36664C155.271 8.59862 155.762 8.91345 156.131 9.31112C156.499 9.7088 156.76 10.1728 156.914 10.703C157.067 11.2001 157.144 11.7469 157.144 12.3434C157.144 12.9068 157.083 14.0004 156.96 15.6242C156.868 17.2481 156.745 19.1536 156.591 21.3408C157.39 19.8495 158.296 18.7559 159.31 18.06C160.323 17.3309 161.659 16.9664 163.318 16.9664C166.113 16.9664 168.248 17.9606 169.722 19.9489C171.227 21.9373 171.98 24.9033 171.98 28.8469C171.98 29.8743 171.903 31.001 171.749 32.2272C171.626 33.4533 171.381 34.6795 171.012 35.9057C170.674 37.0987 170.183 38.2751 169.538 39.435C168.923 40.5618 168.109 41.556 167.096 42.4176C166.082 43.2792 164.854 43.9752 163.41 44.5054C161.997 45.0356 160.323 45.3007 158.388 45.3007ZM160.461 23.5777C159.356 23.5777 158.48 23.8926 157.835 24.5222C157.221 25.1519 156.745 25.9141 156.407 26.8088C156.069 27.7036 155.854 28.6647 155.762 29.692C155.67 30.6862 155.624 31.5644 155.624 32.3266C155.624 34.6132 155.916 36.2536 156.499 37.2478C157.083 38.2089 157.958 38.6894 159.125 38.6894C160.231 38.6894 161.091 38.3249 161.705 37.5958C162.35 36.8336 162.826 35.9388 163.134 34.9115C163.471 33.8841 163.686 32.8402 163.779 31.7798C163.871 30.7193 163.917 29.8908 163.917 29.2943C163.917 27.4385 163.656 26.0301 163.134 25.069C162.611 24.0748 161.721 23.5777 160.461 23.5777Z" fill="#0057FF"/>
<path d="M181.729 45.251C179.825 45.251 178.458 44.7042 177.628 43.6106C176.799 42.517 176.385 40.7109 176.385 38.1923C176.385 37.7946 176.4 37.2975 176.431 36.701C176.492 36.1045 176.553 35.3423 176.615 34.4144C176.707 33.4533 176.815 32.2769 176.937 30.885C177.06 29.4931 177.183 27.803 177.306 25.8146C177.46 23.8263 177.613 21.4899 177.767 18.8056C177.951 16.1213 178.135 13.0062 178.32 9.46025C178.35 8.73118 178.427 8.30036 178.55 8.1678C178.642 8.06839 178.888 8.01868 179.287 8.01868H181.084C182.005 8.01868 182.773 8.13466 183.388 8.36664C184.002 8.59862 184.493 8.91345 184.862 9.31112C185.23 9.7088 185.492 10.1728 185.645 10.703C185.799 11.2001 185.876 11.7303 185.876 12.2937C185.876 12.9565 185.829 13.9175 185.737 15.1768C185.676 16.403 185.584 17.7949 185.461 19.3524C185.338 20.91 185.215 22.5338 185.092 24.2239C184.969 25.9141 184.847 27.5379 184.724 29.0955C184.601 30.6199 184.493 31.9952 184.401 33.2214C184.34 34.4475 184.309 35.3754 184.309 36.0051C184.309 36.8667 184.447 37.4798 184.724 37.8443C185.031 38.2089 185.353 38.474 185.691 38.6397C186.029 38.7722 186.336 38.8717 186.613 38.9379C186.92 38.9711 187.073 39.0705 187.073 39.2362C187.073 39.9653 186.997 40.6943 186.843 41.4234C186.689 42.1193 186.413 42.7656 186.014 43.3621C185.614 43.9254 185.062 44.3894 184.355 44.7539C183.679 45.0853 182.804 45.251 181.729 45.251Z" fill="#0057FF"/>
<path d="M201.852 45.3007C200.5 45.3007 199.149 45.1185 197.797 44.7539C196.476 44.3894 195.279 43.7598 194.204 42.865C193.159 41.9702 192.299 40.7772 191.623 39.2859C190.948 37.7946 190.61 35.9222 190.61 33.6687C190.61 32.8402 190.671 31.8461 190.794 30.6862C190.917 29.5263 191.147 28.3333 191.485 27.1071C191.854 25.8809 192.345 24.6713 192.96 23.4783C193.605 22.2521 194.434 21.1585 195.447 20.1975C196.461 19.2364 197.69 18.4577 199.133 17.8611C200.577 17.2646 202.297 16.9664 204.293 16.9664C205.891 16.9664 207.242 17.1652 208.348 17.5629C209.454 17.9606 210.344 18.5074 211.02 19.2033C211.696 19.8661 212.187 20.6449 212.494 21.5396C212.802 22.4344 212.955 23.3955 212.955 24.4228C212.955 25.9472 212.663 27.2397 212.08 28.3001C211.527 29.3606 210.79 30.2554 209.868 30.9844C208.977 31.6804 207.979 32.2272 206.873 32.6248C205.768 33.0225 204.677 33.3373 203.602 33.5693C202.527 33.7682 201.529 33.9007 200.608 33.967C199.717 34.0001 199.026 34.0167 198.534 34.0167C198.534 34.6464 198.611 35.276 198.765 35.9057C198.949 36.5022 199.21 37.0324 199.548 37.4964C199.886 37.9603 200.331 38.3414 200.884 38.6397C201.437 38.9379 202.113 39.0871 202.911 39.0871C203.71 39.0871 204.324 38.9545 204.754 38.6894C205.215 38.3911 205.583 38.0763 205.86 37.7449C206.136 37.3804 206.367 37.0655 206.551 36.8004C206.766 36.5022 207.042 36.353 207.38 36.353C207.534 36.353 207.795 36.4028 208.164 36.5022C208.563 36.5685 208.962 36.7342 209.361 36.9993C209.761 37.2644 210.114 37.6289 210.421 38.0929C210.728 38.5568 210.882 39.1533 210.882 39.8824C210.882 40.8435 210.605 41.672 210.053 42.3679C209.5 43.0638 208.778 43.6272 207.887 44.058C207.027 44.4888 206.06 44.8036 204.985 45.0025C203.909 45.2013 202.865 45.3007 201.852 45.3007ZM202.727 23.5777C202.051 23.5777 201.468 23.7931 200.976 24.2239C200.515 24.6216 200.116 25.1353 199.778 25.7649C199.471 26.3946 199.225 27.0905 199.041 27.8527C198.888 28.6149 198.765 29.344 198.673 30.04C200.577 30.0068 202.113 29.6588 203.28 28.9961C204.478 28.3333 205.077 27.3888 205.077 26.1626C205.077 25.4998 204.877 24.9033 204.478 24.3731C204.109 23.8428 203.526 23.5777 202.727 23.5777Z" fill="#0057FF"/>
<path d="M22.1041 0.916155L23.7065 1.97123C24.5679 2.53841 24.53 3.8142 23.6364 4.32922C23.241 4.5571 22.7588 4.57571 22.347 4.37898L21.8925 4.16182C21.1592 3.81147 20.2967 3.86607 19.6135 4.30611L5.7862 13.2114C4.64292 13.9477 3.95203 15.2144 3.95203 16.5743V24.0673C3.95203 25.4025 4.61821 26.6496 5.72796 27.392L15.5959 33.9932C16.5379 34.6234 16.4962 36.0218 15.5184 36.5948C15.0148 36.89 14.3873 36.874 13.8992 36.5537L2.67717 29.1879C1.5506 28.4484 0.87207 27.1914 0.87207 25.8439V14.8633C0.87207 13.498 1.56841 12.227 2.71902 11.4922L19.3087 0.896704C20.1628 0.351234 21.2577 0.358852 22.1041 0.916155Z" fill="#006DFF"/>
<path d="M19.3224 48.9934L17.6745 47.9331C16.7944 47.3667 16.8269 46.0691 17.7344 45.5463C18.1291 45.3189 18.6098 45.298 19.0225 45.4902L19.4988 45.7121C20.2481 46.0611 21.1242 46.0015 21.8198 45.554L35.8695 36.5155C37.0201 35.7753 37.7131 34.4988 37.707 33.1311L37.6734 25.5982C37.6674 24.2552 36.9878 23.0053 35.864 22.2706L25.7903 15.6845C24.8269 15.0546 24.8627 13.631 25.8566 13.0489C26.3601 12.7541 26.9863 12.7666 27.4771 13.0815L38.9623 20.4483C40.1028 21.1799 40.7948 22.4395 40.8009 23.7949L40.8502 34.8358C40.8563 36.2089 40.1578 37.4896 38.9999 38.2283L22.1192 48.9982C21.2655 49.5429 20.1733 49.541 19.3224 48.9934Z" fill="#1076FF"/>
<path d="M8.20801 19.7326V25.4564C8.20801 25.979 8.49076 26.4606 8.94703 26.7152C9.90788 27.2514 11.091 26.5568 11.091 25.4564V21.5878C11.091 20.316 11.7419 19.1328 12.8161 18.4519L26.4421 9.81494C27.7606 8.97922 29.4448 8.98686 30.7556 9.83452L37.6865 14.3164L38.4904 14.8587C38.7066 15.0045 38.9613 15.0824 39.222 15.0824C39.9054 15.0824 40.4737 14.5564 40.5264 13.875L40.56 13.4404C40.6103 12.7904 40.301 12.1649 39.754 11.8103L30.7586 5.97863C29.4464 5.12792 27.7587 5.11996 26.4385 5.95825L10.0638 16.3558C8.90814 17.0897 8.20801 18.3636 8.20801 19.7326Z" fill="#006DFF"/>
<path d="M33.6914 30.248L33.6914 24.9239C33.6914 24.3845 33.3938 23.8892 32.9176 23.636C31.9461 23.1193 30.7741 23.8234 30.7741 24.9239L30.7741 28.5211C30.7741 29.7888 30.1109 30.9641 29.0258 31.6196L15.1404 40.0068C13.8577 40.7815 12.2496 40.7744 10.9738 39.9882L4.20944 35.8199C3.98555 35.6819 3.81992 35.4668 3.74381 35.2151C3.62125 34.8097 3.27238 34.5139 2.85244 34.4592L2.57524 34.4231C1.67225 34.3056 0.871709 35.0087 0.871709 35.9193L0.871709 36.3937C0.871709 37.0612 1.21736 37.681 1.78519 38.0318L10.9708 43.7066C12.248 44.4956 13.8595 44.5031 15.1439 43.7259L31.7622 33.6702C32.9597 32.9456 33.6914 31.6477 33.6914 30.248Z" fill="#006DFF"/>
<ellipse cx="2.25531" cy="2.43333" rx="2.25531" ry="2.43333" transform="matrix(-1 0 0 1 41.5596 11.0846)" fill="#2EDAFF"/>
<ellipse cx="2.25531" cy="2.43333" rx="2.25531" ry="2.43333" transform="matrix(-1 0 0 1 4.5105 33.3322)" fill="#2EDAFF"/>
<ellipse cx="139.506" cy="7.95613" rx="4.51061" ry="4.86666" fill="#2EDAFF"/>
</svg>
